<svg xmlns="http://www.w3.org/2000/svg" width="900" height="250" viewBox="0 0 900 250" role="img" aria-labelledby="title desc">
  <title id="title">LiuMengxuan04's Contribution Signal</title>
  <desc id="desc">448 contributions by LiuMengxuan04 across the most recent 52 weeks</desc>
  <style>
    .header { font: 700 18px Inter, "Segoe UI", sans-serif; fill: #0891b2; }
    .summary { font: 500 12px Inter, "Segoe UI", sans-serif; fill: #64748b; }
    .axis { font: 400 10px Inter, "Segoe UI", sans-serif; fill: #64748b; }
    .updated { font: 400 10px Inter, "Segoe UI", sans-serif; fill: #94a3b8; }
    .border { fill: #ffffff00; stroke: #e2e8f0; }
    .grid { stroke: #e2e8f0; stroke-width: 1; }
    .area { fill: #ccfbf1; fill-opacity: .68; }
    .line { fill: none; stroke: #0891b2; stroke-width: 2.5; stroke-linejoin: round; stroke-linecap: round; }
    .point { fill: #14b8a6; stroke: #ffffff; stroke-width: 1.5; }
    @media (prefers-color-scheme: dark) {
      .summary, .axis { fill: #94a3b8; }
      .border, .grid { stroke: #334155; }
      .area { fill: #134e4a; fill-opacity: .58; }
      .point { stroke: #0d1117; }
    }
  </style>
  <rect x=".5" y=".5" width="899" height="249" rx="10" class="border"/>
  <text x="24" y="30" class="header">Contribution Signal</text>
  <text x="24" y="49" class="summary">448 contributions in the last 52 weeks</text>
  <text x="876" y="30" text-anchor="end" class="updated">2026-09-05 10:50 UTC</text>
  <line x1="58" y1="196.00" x2="875" y2="196.00" class="grid"/><text x="48" y="200.00" text-anchor="end" class="axis">0</text><line x1="58" y1="130.50" x2="875" y2="130.50" class="grid"/><text x="48" y="134.50" text-anchor="end" class="axis">50</text><line x1="58" y1="65.00" x2="875" y2="65.00" class="grid"/><text x="48" y="69.00" text-anchor="end" class="axis">100</text>
  <path d="M 58.00 196 L 58.00 196.00 L 74.02 196.00 L 90.04 196.00 L 106.06 196.00 L 122.08 196.00 L 138.10 196.00 L 154.12 196.00 L 170.14 196.00 L 186.16 196.00 L 202.18 194.69 L 218.20 196.00 L 234.22 196.00 L 250.24 196.00 L 266.25 196.00 L 282.27 196.00 L 298.29 196.00 L 314.31 196.00 L 330.33 196.00 L 346.35 184.21 L 362.37 196.00 L 378.39 196.00 L 394.41 196.00 L 410.43 193.38 L 426.45 196.00 L 442.47 194.69 L 458.49 196.00 L 474.51 193.38 L 490.53 186.83 L 506.55 176.35 L 522.57 129.19 L 538.59 175.04 L 554.61 193.38 L 570.63 185.52 L 586.65 190.76 L 602.67 190.76 L 618.69 186.83 L 634.71 152.77 L 650.73 101.68 L 666.75 147.53 L 682.76 154.08 L 698.78 169.80 L 714.80 152.77 L 730.82 186.83 L 746.84 151.46 L 762.86 196.00 L 778.88 194.69 L 794.90 182.90 L 810.92 192.07 L 826.94 159.32 L 842.96 196.00 L 858.98 193.38 L 875.00 186.83 L 875.00 196 Z" class="area"/>
  <path d="M 58.00 196.00 L 74.02 196.00 L 90.04 196.00 L 106.06 196.00 L 122.08 196.00 L 138.10 196.00 L 154.12 196.00 L 170.14 196.00 L 186.16 196.00 L 202.18 194.69 L 218.20 196.00 L 234.22 196.00 L 250.24 196.00 L 266.25 196.00 L 282.27 196.00 L 298.29 196.00 L 314.31 196.00 L 330.33 196.00 L 346.35 184.21 L 362.37 196.00 L 378.39 196.00 L 394.41 196.00 L 410.43 193.38 L 426.45 196.00 L 442.47 194.69 L 458.49 196.00 L 474.51 193.38 L 490.53 186.83 L 506.55 176.35 L 522.57 129.19 L 538.59 175.04 L 554.61 193.38 L 570.63 185.52 L 586.65 190.76 L 602.67 190.76 L 618.69 186.83 L 634.71 152.77 L 650.73 101.68 L 666.75 147.53 L 682.76 154.08 L 698.78 169.80 L 714.80 152.77 L 730.82 186.83 L 746.84 151.46 L 762.86 196.00 L 778.88 194.69 L 794.90 182.90 L 810.92 192.07 L 826.94 159.32 L 842.96 196.00 L 858.98 193.38 L 875.00 186.83" class="line"/>
  <circle cx="58.00" cy="196.00" r="3" class="point"><title>Week of 2025-09-07: 0 contributions</title></circle><circle cx="74.02" cy="196.00" r="3" class="point"><title>Week of 2025-09-14: 0 contributions</title></circle><circle cx="90.04" cy="196.00" r="3" class="point"><title>Week of 2025-09-21: 0 contributions</title></circle><circle cx="106.06" cy="196.00" r="3" class="point"><title>Week of 2025-09-28: 0 contributions</title></circle><circle cx="122.08" cy="196.00" r="3" class="point"><title>Week of 2025-10-05: 0 contributions</title></circle><circle cx="138.10" cy="196.00" r="3" class="point"><title>Week of 2025-10-12: 0 contributions</title></circle><circle cx="154.12" cy="196.00" r="3" class="point"><title>Week of 2025-10-19: 0 contributions</title></circle><circle cx="170.14" cy="196.00" r="3" class="point"><title>Week of 2025-10-26: 0 contributions</title></circle><circle cx="186.16" cy="196.00" r="3" class="point"><title>Week of 2025-11-02: 0 contributions</title></circle><circle cx="202.18" cy="194.69" r="3" class="point"><title>Week of 2025-11-09: 1 contributions</title></circle><circle cx="218.20" cy="196.00" r="3" class="point"><title>Week of 2025-11-16: 0 contributions</title></circle><circle cx="234.22" cy="196.00" r="3" class="point"><title>Week of 2025-11-23: 0 contributions</title></circle><circle cx="250.24" cy="196.00" r="3" class="point"><title>Week of 2025-11-30: 0 contributions</title></circle><circle cx="266.25" cy="196.00" r="3" class="point"><title>Week of 2025-12-07: 0 contributions</title></circle><circle cx="282.27" cy="196.00" r="3" class="point"><title>Week of 2025-12-14: 0 contributions</title></circle><circle cx="298.29" cy="196.00" r="3" class="point"><title>Week of 2025-12-21: 0 contributions</title></circle><circle cx="314.31" cy="196.00" r="3" class="point"><title>Week of 2025-12-28: 0 contributions</title></circle><circle cx="330.33" cy="196.00" r="3" class="point"><title>Week of 2026-01-04: 0 contributions</title></circle><circle cx="346.35" cy="184.21" r="3" class="point"><title>Week of 2026-01-11: 9 contributions</title></circle><circle cx="362.37" cy="196.00" r="3" class="point"><title>Week of 2026-01-18: 0 contributions</title></circle><circle cx="378.39" cy="196.00" r="3" class="point"><title>Week of 2026-01-25: 0 contributions</title></circle><circle cx="394.41" cy="196.00" r="3" class="point"><title>Week of 2026-02-01: 0 contributions</title></circle><circle cx="410.43" cy="193.38" r="3" class="point"><title>Week of 2026-02-08: 2 contributions</title></circle><circle cx="426.45" cy="196.00" r="3" class="point"><title>Week of 2026-02-15: 0 contributions</title></circle><circle cx="442.47" cy="194.69" r="3" class="point"><title>Week of 2026-02-22: 1 contributions</title></circle><circle cx="458.49" cy="196.00" r="3" class="point"><title>Week of 2026-03-01: 0 contributions</title></circle><circle cx="474.51" cy="193.38" r="3" class="point"><title>Week of 2026-03-08: 2 contributions</title></circle><circle cx="490.53" cy="186.83" r="3" class="point"><title>Week of 2026-03-15: 7 contributions</title></circle><circle cx="506.55" cy="176.35" r="3" class="point"><title>Week of 2026-03-22: 15 contributions</title></circle><circle cx="522.57" cy="129.19" r="3" class="point"><title>Week of 2026-03-29: 51 contributions</title></circle><circle cx="538.59" cy="175.04" r="3" class="point"><title>Week of 2026-04-05: 16 contributions</title></circle><circle cx="554.61" cy="193.38" r="3" class="point"><title>Week of 2026-04-12: 2 contributions</title></circle><circle cx="570.63" cy="185.52" r="3" class="point"><title>Week of 2026-04-19: 8 contributions</title></circle><circle cx="586.65" cy="190.76" r="3" class="point"><title>Week of 2026-04-26: 4 contributions</title></circle><circle cx="602.67" cy="190.76" r="3" class="point"><title>Week of 2026-05-03: 4 contributions</title></circle><circle cx="618.69" cy="186.83" r="3" class="point"><title>Week of 2026-05-10: 7 contributions</title></circle><circle cx="634.71" cy="152.77" r="3" class="point"><title>Week of 2026-05-17: 33 contributions</title></circle><circle cx="650.73" cy="101.68" r="3" class="point"><title>Week of 2026-05-24: 72 contributions</title></circle><circle cx="666.75" cy="147.53" r="3" class="point"><title>Week of 2026-05-31: 37 contributions</title></circle><circle cx="682.76" cy="154.08" r="3" class="point"><title>Week of 2026-06-07: 32 contributions</title></circle><circle cx="698.78" cy="169.80" r="3" class="point"><title>Week of 2026-06-14: 20 contributions</title></circle><circle cx="714.80" cy="152.77" r="3" class="point"><title>Week of 2026-06-21: 33 contributions</title></circle><circle cx="730.82" cy="186.83" r="3" class="point"><title>Week of 2026-06-28: 7 contributions</title></circle><circle cx="746.84" cy="151.46" r="3" class="point"><title>Week of 2026-07-05: 34 contributions</title></circle><circle cx="762.86" cy="196.00" r="3" class="point"><title>Week of 2026-07-12: 0 contributions</title></circle><circle cx="778.88" cy="194.69" r="3" class="point"><title>Week of 2026-07-19: 1 contributions</title></circle><circle cx="794.90" cy="182.90" r="3" class="point"><title>Week of 2026-07-26: 10 contributions</title></circle><circle cx="810.92" cy="192.07" r="3" class="point"><title>Week of 2026-08-02: 3 contributions</title></circle><circle cx="826.94" cy="159.32" r="3" class="point"><title>Week of 2026-08-09: 28 contributions</title></circle><circle cx="842.96" cy="196.00" r="3" class="point"><title>Week of 2026-08-16: 0 contributions</title></circle><circle cx="858.98" cy="193.38" r="3" class="point"><title>Week of 2026-08-23: 2 contributions</title></circle><circle cx="875.00" cy="186.83" r="3" class="point"><title>Week of 2026-08-30: 7 contributions</title></circle>
  <text x="58.00" y="220" text-anchor="middle" class="axis">Sep</text><text x="122.08" y="220" text-anchor="middle" class="axis">Oct</text><text x="186.16" y="220" text-anchor="middle" class="axis">Nov</text><text x="266.25" y="220" text-anchor="middle" class="axis">Dec</text><text x="330.33" y="220" text-anchor="middle" class="axis">Jan 2026</text><text x="394.41" y="220" text-anchor="middle" class="axis">Feb</text><text x="458.49" y="220" text-anchor="middle" class="axis">Mar</text><text x="538.59" y="220" text-anchor="middle" class="axis">Apr</text><text x="602.67" y="220" text-anchor="middle" class="axis">May</text><text x="682.76" y="220" text-anchor="middle" class="axis">Jun</text><text x="746.84" y="220" text-anchor="middle" class="axis">Jul</text><text x="810.92" y="220" text-anchor="middle" class="axis">Aug</text>
</svg>
